# Blender v2.78 (sub 0) OBJ File: '12.blend'
# www.blender.org
mtllib Ladybug_01.mtl
g Ladybug_01_Sphere.002
v -0.000002 2.250106 -4.263203
v -0.000001 0.466166 -4.618051
v -1.261438 1.727602 -4.263202
v -2.330832 2.796997 -3.252680
v -3.045377 3.511544 -1.740328
v -3.296292 3.762459 0.043613
v -3.045376 3.511544 1.827554
v -2.330830 2.796997 3.339905
v -1.261435 1.727603 4.350426
v -1.783942 0.466166 -4.263202
v -3.296293 0.466166 -3.252680
v -4.306814 0.466166 -1.740328
v -4.661661 0.466166 0.043613
v -4.306812 0.466166 1.827554
v -3.296291 0.466166 3.339906
v -1.783939 0.466166 4.350426
v 0.000001 0.466167 4.705274
v 1.783938 0.466166 -4.263203
v 3.296290 0.466166 -3.252682
v 4.306812 0.466166 -1.740331
v 4.661660 0.466166 0.043610
v 4.306813 0.466166 1.827551
v 3.296292 0.466166 3.339903
v 1.783941 0.466166 4.350425
v 1.261434 1.727602 -4.263203
v 2.330829 2.796997 -3.252682
v 3.045376 3.511543 -1.740331
v 3.296291 3.762458 0.043610
v 3.045377 3.511543 1.827552
v 2.330831 2.796997 3.339904
v 1.261437 1.727603 4.350425
v -0.000001 3.762458 -3.252682
v -0.000001 4.772979 -1.740329
v -0.000000 5.127827 0.043612
v 0.000001 4.772979 1.827553
v 0.000001 3.762459 3.339904
v 0.000001 2.250107 4.350425
v -1.783938 0.466166 5.423216
v -1.261435 1.727603 5.423216
v 1.783942 0.466166 5.423215
v 1.261438 1.727603 5.423215
v 0.000002 2.250107 5.423216
v 0.000002 0.466167 5.778064
v -1.012397 0.466166 6.163255
v -0.715873 1.352120 6.163254
v 1.012401 0.466166 6.163254
v 0.715876 1.352120 6.163254
v 0.000002 1.577721 6.163254
v 0.000002 0.466167 6.518103
v 0.213743 2.249727 -4.308140
v 0.213743 0.446209 -4.666882
v 2.112065 0.446210 -4.308141
v 3.641013 0.446210 -3.286530
v 4.662624 0.446209 -1.757583
v 5.021367 0.446210 0.045936
v 4.662626 0.446210 1.849454
v 3.641015 0.446210 3.378402
v 2.112068 0.446210 4.400013
v 1.583827 1.721489 -4.308141
v 2.664957 2.802619 -3.286530
v 3.387345 3.525006 -1.757583
v 3.641014 3.778676 0.045936
v 3.387346 3.525006 1.849454
v 2.664959 2.802619 3.378403
v 1.583830 1.721489 4.400013
v 0.213743 3.778675 -3.286530
v 0.213744 4.800285 -1.757581
v 0.213744 5.159028 0.045937
v 0.213745 4.800285 1.849455
v 0.213745 3.778676 3.378403
v 0.213746 2.249727 4.400014
v 0.434634 0.454736 4.791837
v -0.284468 0.446209 -4.666882
v -0.284468 2.249727 -4.308140
v -2.112068 0.446210 -4.308140
v -3.641016 0.446210 -3.286529
v -4.662626 0.446209 -1.757580
v -5.021368 0.446210 0.045939
v -4.662625 0.446210 1.849457
v -3.641014 0.446210 3.378405
v -2.112065 0.446210 4.400015
v -1.583830 1.721489 -4.308140
v -2.664960 2.802619 -3.286528
v -3.387347 3.525006 -1.757580
v -3.641015 3.778676 0.045938
v -3.387345 3.525006 1.849456
v -2.664958 2.802619 3.378405
v -1.583827 1.721489 4.400014
v -0.284467 3.778675 -3.286530
v -0.284467 4.800285 -1.757581
v -0.284466 5.159028 0.045937
v -0.284466 4.800285 1.849455
v -0.284465 3.778676 3.378403
v -0.284465 2.249727 4.400014
v -0.505352 0.454736 4.791837
v -2.646968 4.083340 -0.777398
v 1.800544 4.162646 -1.757582
v 1.439350 3.290647 -3.286530
v 0.898788 1.985608 4.400014
v 1.439352 3.290647 3.378403
v 1.800545 4.162646 1.849454
v 0.898785 1.985608 -4.308141
v -1.835907 4.162646 -1.757580
v -1.474713 3.290647 -3.286529
v -0.934146 1.985608 4.400014
v -1.474711 3.290647 3.378404
v -1.835906 4.162646 1.849455
v -0.934149 1.985608 -4.308140
v 2.605635 4.093972 -0.892086
v 3.002394 4.119097 -0.026156
v 2.605636 4.093972 0.839775
v 1.081881 4.706278 -0.892086
v 0.816909 4.999314 -0.026155
v 1.081882 4.706278 0.839776
v 1.909651 4.559205 -0.026155
v 1.828772 4.363945 -1.176214
v 1.828773 4.363945 1.123904
v -3.091935 4.070623 0.113360
v -2.646967 4.083340 1.004116
v -1.114457 4.713200 -0.777398
v -0.790148 5.017213 0.113359
v -1.114456 4.713200 1.004116
v -1.957582 4.583850 0.113359
v -1.868800 4.369510 -1.116175
v -1.868799 4.369510 1.342893
v -0.472219 2.054507 5.021615
v -0.472220 2.054507 4.752027
v -0.789214 1.923203 5.021616
v -0.789214 1.923203 4.752027
v -0.548784 2.428620 4.878030
v -0.548784 2.428620 4.762065
v -0.695695 2.414476 4.878030
v -0.695695 2.414476 4.762065
v -0.886448 6.702409 5.002527
v -0.886448 6.702409 4.771115
v -1.179617 6.674181 5.002527
v -1.179617 6.674181 4.771116
v 0.457900 2.060439 4.739846
v 0.803539 1.917271 4.739846
v 0.457900 2.060439 5.033795
v 0.803539 1.917271 5.033795
v 0.524796 2.420047 4.761498
v 0.672106 2.397439 4.761498
v 0.524796 2.420047 4.878596
v 0.672106 2.397439 4.878596
v 1.105387 6.692026 4.769985
v 1.399350 6.646910 4.769985
v 1.105387 6.692026 5.003658
v 1.399350 6.646910 5.003658
v 0.901709 3.893465 4.555374
v 0.901709 3.893465 4.672472
v 0.754400 3.916073 4.672472
v 0.754400 3.916073 4.555374
v -0.693500 3.931733 4.556020
v -0.693500 3.931733 4.671983
v -0.840412 3.917588 4.671983
v -0.840412 3.917588 4.556020
v -0.000001 0.466166 -3.830257
v -1.482466 0.466166 -3.535376
v -2.739239 0.466166 -2.695627
v -3.578988 0.466166 -1.438852
v -3.873868 0.466166 0.043613
v -3.578987 0.466166 1.526079
v -2.739237 0.466166 2.782851
v -1.482464 0.466166 3.622601
v 0.000001 0.466167 3.917480
v 1.482463 0.466166 -3.535377
v 2.739237 0.466166 -2.695629
v 3.578986 0.466166 -1.438855
v 3.873867 0.466166 0.043611
v 3.578987 0.466166 1.526076
v 2.739239 0.466166 2.782850
v 1.482466 0.466166 3.622600
v -0.000000 0.466166 0.043612
v -4.177289 0.466166 1.249471
v -4.320775 0.466166 0.528126
v -4.022004 0.466166 0.528126
v -3.901262 0.466166 1.135137
v 2.712647 0.466166 3.441463
v 2.101120 0.466166 3.850072
v 1.986786 0.466166 3.574044
v 2.501384 0.466166 3.230200
v -3.397850 0.466166 2.756261
v -3.806459 0.466166 2.144733
v -3.530431 0.466166 2.030399
v -3.186587 0.466166 2.544998
v -2.101119 0.466166 3.850074
v -2.712645 0.466166 3.441464
v -2.501383 0.466166 3.230201
v -1.986784 0.466166 3.574045
v 3.397849 0.466166 -2.669037
v 3.806459 0.466166 -2.057510
v 3.530431 0.466166 -1.943175
v 3.186587 0.466166 -2.457774
v 4.177289 0.466166 -1.162248
v 4.320773 0.466166 -0.440902
v 4.022002 0.466166 -0.440902
v 3.901260 0.466166 -1.047913
v -3.806461 0.466166 -2.057508
v -3.397851 0.466166 -2.669035
v -3.186588 0.466166 -2.457772
v -3.530433 0.466166 -1.943173
v 4.320774 0.466166 0.528123
v 4.177289 0.466166 1.249469
v 3.901261 0.466166 1.135134
v 4.022003 0.466166 0.528123
v -4.320775 0.466166 -0.440899
v -4.177290 0.466166 -1.162245
v -3.901263 0.466166 -1.047910
v -4.022004 0.466166 -0.440899
v 3.806460 0.466166 2.144731
v 3.397851 0.466166 2.756258
v 3.186588 0.466166 2.544995
v 3.530432 0.466166 2.030396
v -4.105332 -0.040106 1.195306
v 2.325485 -0.040105 3.849709
v -3.480332 -0.040105 2.564211
v -2.325482 -0.040105 3.849711
v 3.480331 -0.040106 -2.622297
v 4.105331 -0.040106 -1.270437
v -3.480334 -0.040106 -2.622294
v 4.105332 -0.040106 1.195303
v -4.105333 -0.040106 -1.270434
v 3.480333 -0.040106 2.564209
v -2.027825 0.466166 -3.890998
v -2.859091 0.466166 -3.335563
v 2.027822 0.466166 -3.890999
v 2.859088 0.466166 -3.335565
v -1.862118 0.466166 -3.490947
v -2.552905 0.466166 -3.029377
v 1.862115 0.466166 -3.490948
v 2.552903 0.466166 -3.029379
v -2.325485 -0.062177 -3.709774
v 2.325482 -0.062177 -3.709776
vn 0.7862 0.3256 0.5253
vn 0.9087 0.3764 -0.1807
vn 0.5414 0.2243 -0.8103
vn 0.5414 0.2243 0.8103
vn 0.9087 0.3764 0.1807
vn 0.7862 0.3256 -0.5253
vn 0.1851 0.0767 -0.9797
vn 0.3733 0.8854 -0.2770
vn 0.2142 0.5440 -0.8113
vn 0.2142 0.5440 0.8113
vn 0.3514 0.9056 0.2375
vn 0.3160 0.7895 -0.5262
vn 0.0750 0.1945 -0.9780
vn 0.3160 0.7895 0.5262
vn 0.0858 0.2225 0.9711
vn 0.2269 0.0940 0.9694
vn -0.7862 0.3256 0.5253
vn -0.9087 0.3764 -0.1807
vn -0.5414 0.2243 -0.8103
vn -0.5414 0.2243 0.8103
vn -0.9087 0.3764 0.1807
vn -0.7862 0.3256 -0.5253
vn -0.1920 0.0795 -0.9782
vn -0.3881 0.8872 -0.2494
vn -0.2216 0.5421 -0.8106
vn -0.2216 0.5421 0.8106
vn -0.2765 0.9404 0.1980
vn -0.3231 0.7870 -0.5255
vn -0.0791 0.1945 -0.9777
vn -0.3231 0.7870 0.5255
vn -0.0907 0.2230 0.9706
vn -0.2363 0.0979 0.9667
vn 0.3164 0.7906 0.5243
vn 0.3164 0.7906 -0.5243
vn 0.4467 0.8721 -0.1999
vn 0.2152 0.5467 0.8092
vn 0.2152 0.5467 -0.8092
vn 0.3056 0.9315 0.1971
vn -0.3232 0.7873 0.5250
vn -0.3232 0.7873 -0.5250
vn -0.3373 0.8942 0.2945
vn -0.2219 0.5428 0.8100
vn -0.2219 0.5428 -0.8100
vn -0.3475 0.9033 -0.2516
vn 0.4194 0.8867 0.1948
vn 0.2716 0.9408 -0.2028
vn 0.3729 0.8972 0.2363
vn 0.3428 0.8971 -0.2789
vn -0.4282 0.8835 -0.1900
vn -0.4549 0.8688 0.1956
vn -0.3100 0.9312 -0.1918
vn -0.3889 0.8740 0.2912
vn -0.3764 0.9087 -0.1807
vn -0.2243 0.5414 -0.8103
vn -0.2243 0.5414 0.8103
vn -0.3764 0.9087 0.1807
vn -0.3256 0.7862 -0.5253
vn -0.0805 0.1945 -0.9776
vn 0.9239 0.3827 -0.0000
vn -0.3256 0.7862 0.5253
vn -0.1945 0.0805 -0.9776
vn 0.3827 0.9239 0.0000
vn -0.3827 0.9239 0.0000
vn 0.1945 0.0805 -0.9776
vn 0.3764 0.9087 -0.1807
vn 0.2243 0.5414 -0.8103
vn 0.2243 0.5414 0.8103
vn 0.3764 0.9087 0.1807
vn 0.3256 0.7862 -0.5253
vn 0.0805 0.1945 -0.9776
vn -0.9239 0.3827 0.0000
vn 0.3256 0.7862 0.5253
vn -0.6870 0.2620 0.6778
vn 0.2773 0.7330 0.6212
vn 0.0000 -1.0000 -0.0000
vn 0.6870 0.2620 0.6778
vn -0.0954 0.3027 0.9483
vn -0.3288 0.1100 0.9380
vn 0.3288 0.1100 0.9380
vn 0.0954 0.3027 0.9483
vn -0.2773 0.7330 0.6212
vn 0.3596 0.9139 -0.1885
vn 0.3596 0.9139 0.1885
vn 0.3736 0.9084 0.1878
vn 0.3736 0.9084 -0.1878
vn -0.3396 0.9217 -0.1876
vn -0.3396 0.9217 0.1876
vn -0.4069 0.8940 0.1874
vn -0.4069 0.8940 -0.1874
vn -0.0073 0.0233 -0.9997
vn 0.9976 0.0695 -0.0000
vn 0.9797 0.2005 -0.0000
vn -0.0988 0.3152 0.9439
vn -0.9824 0.1870 0.0000
vn -0.0958 0.9954 0.0000
vn 0.0113 -0.1177 0.9930
vn -0.9925 -0.1221 0.0000
vn -0.0074 0.0769 -0.9970
vn 0.1185 0.3523 0.9284
vn 0.9841 -0.1779 0.0000
vn 0.0178 0.0529 -0.9984
vn 0.9645 0.2640 -0.0000
vn -0.9831 0.1829 0.0000
vn 0.1517 0.9884 0.0000
vn -0.9921 0.1254 0.0000
vn -0.0178 -0.1162 0.9931
vn 0.0116 0.0756 -0.9971
vn -0.0205 -0.1334 -0.9909
vn 0.0205 0.1334 0.9909
vn -0.9884 0.1517 -0.0000
vn 0.9884 -0.1517 -0.0000
vn 0.0130 -0.1346 -0.9908
vn -0.9954 -0.0958 0.0000
vn -0.0130 0.1346 0.9908
vn 0.9954 0.0958 -0.0000
vn -0.2690 -0.7113 -0.6494
vn -0.3823 -0.0444 0.9230
vn 0.6602 -0.3580 0.6602
vn -0.0000 -0.7966 -0.6045
vn 0.9047 -0.3861 -0.1800
vn -0.8838 -0.4335 0.1758
vn -0.8291 -0.0751 0.5540
vn 0.9684 -0.1583 0.1926
vn 0.0000 -0.8536 0.5210
vn 0.8291 -0.0751 0.5540
vn 0.8285 0.0839 -0.5536
vn -0.9047 -0.3861 -0.1800
vn 0.7426 -0.4497 -0.4962
vn 0.2690 -0.7113 -0.6494
vn -0.6959 -0.1776 -0.6959
vn -0.6602 -0.3580 0.6602
vn 0.2359 -0.7874 0.5696
vn -0.8285 0.0839 -0.5536
vn -0.7426 -0.4497 -0.4962
vn 0.5395 0.2385 0.8075
vn -0.6930 -0.5526 0.4631
vn -0.2359 -0.7874 0.5696
vn 0.4731 -0.7432 -0.4731
vn 0.6959 -0.1776 -0.6959
vn -0.8549 -0.3791 0.3541
vn -0.9761 -0.0972 -0.1942
vn -0.5395 0.2385 0.8075
vn 0.6930 -0.5526 0.4631
vn -0.4287 -0.6361 -0.6416
vn 0.8549 -0.3791 0.3541
vn 0.3711 0.2442 -0.8959
vn -0.4731 -0.7432 -0.4731
vn 0.9761 -0.0972 -0.1942
vn 0.8838 -0.4335 0.1758
vn -0.9684 -0.1583 0.1926
vn 0.4287 -0.6361 -0.6416
vn -0.3711 0.2442 -0.8959
vn 0.3823 -0.0444 0.9230
vn -0.4272 -0.6394 0.6393
vn 0.4494 -0.7721 0.4494
vn 0.5554 0.0278 -0.8311
vn -0.4494 -0.7721 0.4494
vn -0.7740 -0.5460 -0.3206
vn 0.4272 -0.6394 0.6393
vn -0.5554 0.0278 -0.8311
vn 0.7740 -0.5460 -0.3206
usemtl F44336
s off
f 57//1 56//1 63//1 64//1
f 55//2 54//2 61//2 62//2
f 53//3 52//3 59//3 60//3
f 58//4 57//4 64//4 65//4
f 56//5 55//5 62//5 63//5
f 54//6 53//6 60//6 61//6
f 52//7 51//7 59//7
f 61//8 97//8 116//8 109//8
f 98//9 102//9 50//9 66//9
f 99//10 100//10 70//10 71//10
f 69//11 101//11 117//11 114//11
f 97//12 98//12 66//12 67//12
f 59//13 51//13 50//13 102//13
f 100//14 101//14 69//14 70//14
f 65//15 99//15 71//15 72//15
f 58//16 65//16 72//16
f 80//17 87//17 86//17 79//17
f 78//18 85//18 84//18 77//18
f 76//19 83//19 82//19 75//19
f 81//20 88//20 87//20 80//20
f 79//21 86//21 85//21 78//21
f 77//22 84//22 83//22 76//22
f 75//23 82//23 73//23
f 103//24 84//24 96//24 124//24
f 104//25 89//25 74//25 108//25
f 105//26 94//26 93//26 106//26
f 92//27 91//27 121//27 122//27
f 103//28 90//28 89//28 104//28
f 82//29 108//29 74//29 73//29
f 106//30 93//30 92//30 107//30
f 88//31 95//31 94//31 105//31
f 81//32 95//32 88//32
f 64//33 63//33 101//33 100//33
f 61//34 60//34 98//34 97//34
f 62//35 61//35 109//35 110//35
f 65//36 64//36 100//36 99//36
f 60//37 59//37 102//37 98//37
f 68//38 69//38 114//38 113//38
f 87//39 106//39 107//39 86//39
f 84//40 103//40 104//40 83//40
f 107//41 92//41 122//41 125//41
f 88//42 105//42 106//42 87//42
f 83//43 104//43 108//43 82//43
f 90//44 103//44 124//44 120//44
f 63//45 62//45 110//45 111//45
f 67//46 68//46 113//46 112//46
f 101//47 63//47 111//47 117//47
f 97//48 67//48 112//48 116//48
f 84//49 85//49 118//49 96//49
f 85//50 86//50 119//50 118//50
f 91//51 90//51 120//51 121//51
f 86//52 107//52 125//52 119//52
usemtl 1A1A1A
f 34//53 33//53 5//53 6//53
f 32//54 1//54 3//54 4//54
f 37//55 36//55 8//55 9//55
f 35//56 34//56 6//56 7//56
f 33//57 32//57 4//57 5//57
f 1//58 2//58 3//58
f 24//59 31//59 41//59 40//59
f 36//60 35//60 7//60 8//60
f 9//20 8//20 15//20 16//20
f 7//21 6//21 13//21 14//21
f 5//22 4//22 11//22 12//22
f 3//61 2//61 10//61
f 31//62 37//62 138//62 139//62
f 8//17 7//17 14//17 15//17
f 6//18 5//18 12//18 13//18
f 4//19 3//19 10//19 11//19
f 37//63 9//63 129//63 127//63
f 23//1 22//1 29//1 30//1
f 21//2 20//2 27//2 28//2
f 19//3 18//3 25//3 26//3
f 24//4 23//4 30//4 31//4
f 22//5 21//5 28//5 29//5
f 20//6 19//6 26//6 27//6
f 18//64 2//64 25//64
f 28//65 27//65 33//65 34//65
f 26//66 25//66 1//66 32//66
f 31//67 30//67 36//67 37//67
f 29//68 28//68 34//68 35//68
f 27//69 26//69 32//69 33//69
f 25//70 2//70 1//70
f 9//71 16//71 38//71 39//71
f 30//72 29//72 35//72 36//72
f 39//73 38//73 44//73 45//73
f 41//74 42//74 48//74 47//74
f 38//75 43//75 49//75 44//75
f 40//76 41//76 47//76 46//76
f 17//75 24//75 40//75 43//75
f 16//75 17//75 43//75 38//75
f 49//77 48//77 45//77
f 49//78 45//78 44//78
f 49//79 46//79 47//79
f 49//80 47//80 48//80
f 43//75 40//75 46//75 49//75
f 42//81 39//81 45//81 48//81
f 115//82 116//82 112//82 113//82
f 117//83 115//83 113//83 114//83
f 111//84 110//84 115//84 117//84
f 110//85 109//85 116//85 115//85
f 123//86 121//86 120//86 124//86
f 125//87 122//87 121//87 123//87
f 119//88 125//88 123//88 118//88
f 118//89 123//89 124//89 96//89
f 127//90 129//90 133//90 131//90
f 9//63 39//63 128//63 129//63
f 42//63 37//63 127//63 126//63
f 39//63 42//63 126//63 128//63
f 155//91 154//91 135//91 134//91
f 126//92 127//92 131//92 130//92
f 128//93 126//93 130//93 132//93
f 129//94 128//94 132//94 133//94
f 135//95 137//95 136//95 134//95
f 156//96 155//96 134//96 136//96
f 157//97 156//97 136//97 137//97
f 154//98 157//98 137//98 135//98
f 140//99 141//99 145//99 144//99
f 42//62 41//62 141//62 140//62
f 41//62 31//62 139//62 141//62
f 37//62 42//62 140//62 138//62
f 151//100 150//100 147//100 149//100
f 139//101 138//101 142//101 143//101
f 141//102 139//102 143//102 145//102
f 138//103 140//103 144//103 142//103
f 147//104 146//104 148//104 149//104
f 153//105 152//105 148//105 146//105
f 152//106 151//106 149//106 148//106
f 150//107 153//107 146//107 147//107
f 143//108 142//108 153//108 150//108
f 144//109 145//109 151//109 152//109
f 142//110 144//110 152//110 153//110
f 145//111 143//111 150//111 151//111
f 131//112 133//112 157//112 154//112
f 133//113 132//113 156//113 157//113
f 132//114 130//114 155//114 156//114
f 130//115 131//115 154//115 155//115
f 184//116 185//116 217//116
f 2//75 18//75 167//75 158//75
f 204//117 205//117 222//117
f 186//118 183//118 217//118
f 24//75 17//75 166//75 173//75
f 206//119 203//119 222//119
f 10//75 159//75 229//75 225//75
f 177//120 178//120 215//120
f 167//75 18//75 227//75 231//75
f 197//121 198//121 220//121
f 183//122 184//122 217//122
f 203//123 204//123 222//123
f 10//75 2//75 158//75 159//75
f 176//119 177//119 215//119
f 17//75 16//75 165//75 166//75
f 196//124 197//124 220//124
f 171//75 172//75 174//75
f 163//75 162//75 174//75
f 172//75 173//75 174//75
f 164//75 163//75 174//75
f 159//75 158//75 174//75
f 165//75 164//75 174//75
f 166//75 165//75 174//75
f 167//75 168//75 174//75
f 158//75 167//75 174//75
f 168//75 169//75 174//75
f 160//75 159//75 174//75
f 173//75 166//75 174//75
f 169//75 170//75 174//75
f 161//75 160//75 174//75
f 170//75 171//75 174//75
f 162//75 161//75 174//75
f 14//75 13//75 176//75 175//75
f 13//75 162//75 177//75 176//75
f 162//75 163//75 178//75 177//75
f 163//75 14//75 175//75 178//75
f 23//75 24//75 180//75 179//75
f 24//75 173//75 181//75 180//75
f 173//75 172//75 182//75 181//75
f 172//75 23//75 179//75 182//75
f 15//75 14//75 184//75 183//75
f 14//75 163//75 185//75 184//75
f 163//75 164//75 186//75 185//75
f 164//75 15//75 183//75 186//75
f 16//75 15//75 188//75 187//75
f 15//75 164//75 189//75 188//75
f 164//75 165//75 190//75 189//75
f 165//75 16//75 187//75 190//75
f 19//75 20//75 192//75 191//75
f 20//75 169//75 193//75 192//75
f 169//75 168//75 194//75 193//75
f 168//75 19//75 191//75 194//75
f 20//75 21//75 196//75 195//75
f 21//75 170//75 197//75 196//75
f 170//75 169//75 198//75 197//75
f 169//75 20//75 195//75 198//75
f 12//75 11//75 200//75 199//75
f 11//75 160//75 201//75 200//75
f 160//75 161//75 202//75 201//75
f 161//75 12//75 199//75 202//75
f 21//75 22//75 204//75 203//75
f 22//75 171//75 205//75 204//75
f 171//75 170//75 206//75 205//75
f 170//75 21//75 203//75 206//75
f 13//75 12//75 208//75 207//75
f 12//75 161//75 209//75 208//75
f 161//75 162//75 210//75 209//75
f 162//75 13//75 207//75 210//75
f 22//75 23//75 212//75 211//75
f 23//75 172//75 213//75 212//75
f 172//75 171//75 214//75 213//75
f 171//75 22//75 211//75 214//75
f 211//125 212//125 224//125
f 191//126 192//126 219//126
f 205//127 206//127 222//127
f 185//128 186//128 217//128
f 214//129 211//129 224//129
f 194//130 191//130 219//130
f 212//131 213//131 224//131
f 192//132 193//132 219//132
f 199//133 200//133 221//133
f 213//134 214//134 224//134
f 179//135 180//135 216//135
f 193//136 194//136 219//136
f 202//137 199//137 221//137
f 182//138 179//138 216//138
f 200//139 201//139 221//139
f 180//140 181//140 216//140
f 207//141 208//141 223//141
f 187//142 188//142 218//142
f 201//143 202//143 221//143
f 181//144 182//144 216//144
f 210//124 207//124 223//124
f 190//145 187//145 218//145
f 208//146 209//146 223//146
f 188//147 189//147 218//147
f 195//148 196//148 220//148
f 209//149 210//149 223//149
f 175//150 176//150 215//150
f 189//151 190//151 218//151
f 198//152 195//152 220//152
f 178//153 175//153 215//153
f 232//154 231//154 234//154
f 228//155 232//155 234//155
f 18//75 19//75 228//75 227//75
f 168//75 167//75 231//75 232//75
f 11//75 10//75 225//75 226//75
f 159//75 160//75 230//75 229//75
f 160//75 11//75 226//75 230//75
f 19//75 168//75 232//75 228//75
f 227//156 228//156 234//156
f 230//157 226//157 233//157
f 231//158 227//158 234//158
f 229//159 230//159 233//159
f 226//160 225//160 233//160
f 225//161 229//161 233//161
